<svg xmlns="http://www.w3.org/2000/svg" width="144" height="33.312">
    <path fill="#FFF" fill-rule="evenodd" d="M47.331 15.191a9.175 9.175 0 0 1 3.059 2.203c.856.938 1.529 2.049 2.018 3.334.49 1.285.735 2.681.735 4.19h1.223c0-1.509.234-2.905.704-4.19.468-1.285 1.131-2.396 1.988-3.334a9.145 9.145 0 0 1 3.059-2.203c1.182-.53 2.487-.795 3.915-.795 2.365 0 4.669.214 6.913.642 2.242.429 4.466.908 6.668 1.438 2.202.53 4.435 1.01 6.699 1.438a37.62 37.62 0 0 0 7.005.642c2.202 0 4.261-.357 6.178-1.07 1.917-.715 3.589-1.713 5.017-2.998 1.427-1.285 2.548-2.835 3.364-4.649.816-1.816 1.224-3.804 1.224-5.965V.448h-.489c-.409 0-.612.245-.612.734v2.692c0 1.875-.347 3.629-1.04 5.261a12.428 12.428 0 0 1-2.967 4.252c-1.285 1.202-2.825 2.141-4.619 2.814-1.795.673-3.814 1.009-6.056 1.009a36.97 36.97 0 0 1-6.883-.642 160.934 160.934 0 0 1-6.79-1.438 160.964 160.964 0 0 0-6.791-1.437 36.544 36.544 0 0 0-6.821-.642c-1.55 0-2.927.275-4.129.825-1.204.551-2.233 1.254-3.09 2.111a10.421 10.421 0 0 0-2.049 2.875c-.511 1.06-.847 2.08-1.01 3.059-.204-.979-.561-1.999-1.07-3.059a10.446 10.446 0 0 0-2.05-2.875c-.856-.857-1.876-1.56-3.058-2.111-1.184-.55-2.55-.825-4.099-.825-2.285 0-4.558.213-6.821.642-2.264.428-4.527.907-6.791 1.437-2.263.53-4.527 1.01-6.791 1.438a36.951 36.951 0 0 1-6.882.642c-2.242 0-4.261-.336-6.056-1.009-1.794-.673-3.334-1.612-4.619-2.814A12.428 12.428 0 0 1 2.55 9.135c-.693-1.632-1.04-3.386-1.04-5.261V1.182c0-.489-.204-.734-.612-.734H.409v3.426c0 2.161.408 4.149 1.223 5.965.817 1.814 1.938 3.364 3.365 4.649 1.428 1.285 3.1 2.283 5.016 2.998 1.918.713 3.977 1.07 6.179 1.07 2.406 0 4.741-.214 7.005-.642 2.263-.428 4.496-.908 6.699-1.438a149.04 149.04 0 0 1 6.637-1.438 36.657 36.657 0 0 1 6.944-.642c1.386 0 2.67.265 3.854.795z"/>
</svg>
